<mxfile host="app.diagrams.net" modified="2021-04-18T08:00:53.139Z" agent="5.0 (Windows NT 10.0; WOW64) AppleWebKit/537.36 (KHTML, like Gecko) Chrome/74.0.3713.0 Safari/537.36" etag="pM1LFypmOgfdTfy2ldvh" version="14.6.1" type="github">
  <diagram id="xlvp2JVyiQJ8BeRMdvly" name="第 1 页">
    <mxGraphModel dx="1865" dy="1668" grid="1" gridSize="10" guides="1" tooltips="1" connect="1" arrows="1" fold="1" page="1" pageScale="1" pageWidth="827" pageHeight="1169" math="0" shadow="0">
      <root>
        <mxCell id="0" />
        <mxCell id="1" parent="0" />
        <mxCell id="p3jnpkZ9D1l7SyMoKNWB-19" style="edgeStyle=orthogonalEdgeStyle;rounded=0;orthogonalLoop=1;jettySize=auto;html=1;" parent="1" source="p3jnpkZ9D1l7SyMoKNWB-1" edge="1">
          <mxGeometry relative="1" as="geometry">
            <mxPoint x="165" y="-20" as="targetPoint" />
          </mxGeometry>
        </mxCell>
        <mxCell id="p3jnpkZ9D1l7SyMoKNWB-1" value="&lt;font style=&quot;font-size: 14px&quot;&gt;开始&lt;/font&gt;" style="ellipse;whiteSpace=wrap;html=1;strokeColor=#3700CC;fontColor=#ffffff;fillColor=#000000;" parent="1" vertex="1">
          <mxGeometry x="120" y="-150" width="90" height="70" as="geometry" />
        </mxCell>
        <mxCell id="p3jnpkZ9D1l7SyMoKNWB-5" style="edgeStyle=orthogonalEdgeStyle;rounded=0;orthogonalLoop=1;jettySize=auto;html=1;exitX=0.5;exitY=1;exitDx=0;exitDy=0;entryX=0.5;entryY=0;entryDx=0;entryDy=0;" parent="1" source="p3jnpkZ9D1l7SyMoKNWB-4" target="p3jnpkZ9D1l7SyMoKNWB-10" edge="1">
          <mxGeometry relative="1" as="geometry">
            <mxPoint x="165" y="260" as="targetPoint" />
          </mxGeometry>
        </mxCell>
        <mxCell id="p3jnpkZ9D1l7SyMoKNWB-6" style="edgeStyle=orthogonalEdgeStyle;rounded=0;orthogonalLoop=1;jettySize=auto;html=1;exitX=1;exitY=0.5;exitDx=0;exitDy=0;entryX=0;entryY=0.5;entryDx=0;entryDy=0;" parent="1" source="p3jnpkZ9D1l7SyMoKNWB-4" target="p3jnpkZ9D1l7SyMoKNWB-7" edge="1">
          <mxGeometry relative="1" as="geometry">
            <mxPoint x="290" y="170" as="targetPoint" />
          </mxGeometry>
        </mxCell>
        <mxCell id="p3jnpkZ9D1l7SyMoKNWB-4" value="&lt;b&gt;table == null&lt;/b&gt;" style="rhombus;whiteSpace=wrap;html=1;" parent="1" vertex="1">
          <mxGeometry x="107.5" y="130" width="115" height="80" as="geometry" />
        </mxCell>
        <mxCell id="p3jnpkZ9D1l7SyMoKNWB-12" style="edgeStyle=orthogonalEdgeStyle;rounded=0;orthogonalLoop=1;jettySize=auto;html=1;entryX=1;entryY=0.5;entryDx=0;entryDy=0;" parent="1" source="p3jnpkZ9D1l7SyMoKNWB-7" target="p3jnpkZ9D1l7SyMoKNWB-10" edge="1">
          <mxGeometry relative="1" as="geometry">
            <Array as="points">
              <mxPoint x="430" y="300" />
            </Array>
          </mxGeometry>
        </mxCell>
        <mxCell id="p3jnpkZ9D1l7SyMoKNWB-7" value="&lt;font style=&quot;font-size: 18px&quot;&gt;&lt;b&gt;扩容&lt;/b&gt;&lt;/font&gt;" style="rounded=1;whiteSpace=wrap;html=1;fillColor=#d80073;strokeColor=#A50040;fontColor=#ffffff;" parent="1" vertex="1">
          <mxGeometry x="370" y="140" width="120" height="60" as="geometry" />
        </mxCell>
        <mxCell id="p3jnpkZ9D1l7SyMoKNWB-8" value="&lt;b&gt;true&lt;/b&gt;" style="text;html=1;strokeColor=none;fillColor=none;align=center;verticalAlign=middle;whiteSpace=wrap;rounded=0;" parent="1" vertex="1">
          <mxGeometry x="230" y="150" width="40" height="20" as="geometry" />
        </mxCell>
        <mxCell id="p3jnpkZ9D1l7SyMoKNWB-9" value="&lt;b&gt;false&lt;/b&gt;" style="text;html=1;strokeColor=none;fillColor=none;align=center;verticalAlign=middle;whiteSpace=wrap;rounded=0;" parent="1" vertex="1">
          <mxGeometry x="170" y="220" width="40" height="20" as="geometry" />
        </mxCell>
        <mxCell id="p3jnpkZ9D1l7SyMoKNWB-13" style="edgeStyle=orthogonalEdgeStyle;rounded=0;orthogonalLoop=1;jettySize=auto;html=1;" parent="1" source="p3jnpkZ9D1l7SyMoKNWB-10" edge="1">
          <mxGeometry relative="1" as="geometry">
            <mxPoint x="165" y="380" as="targetPoint" />
          </mxGeometry>
        </mxCell>
        <mxCell id="p3jnpkZ9D1l7SyMoKNWB-10" value="&lt;b&gt;i =(n-1) &amp;amp; hash&lt;br&gt;p=table[i]&lt;br&gt;&lt;/b&gt;" style="rounded=1;whiteSpace=wrap;html=1;" parent="1" vertex="1">
          <mxGeometry x="105" y="270" width="120" height="60" as="geometry" />
        </mxCell>
        <mxCell id="p3jnpkZ9D1l7SyMoKNWB-16" style="edgeStyle=orthogonalEdgeStyle;rounded=0;orthogonalLoop=1;jettySize=auto;html=1;" parent="1" source="p3jnpkZ9D1l7SyMoKNWB-14" edge="1">
          <mxGeometry relative="1" as="geometry">
            <mxPoint x="370" y="420" as="targetPoint" />
          </mxGeometry>
        </mxCell>
        <mxCell id="p3jnpkZ9D1l7SyMoKNWB-22" style="edgeStyle=orthogonalEdgeStyle;rounded=0;orthogonalLoop=1;jettySize=auto;html=1;" parent="1" source="p3jnpkZ9D1l7SyMoKNWB-14" edge="1">
          <mxGeometry relative="1" as="geometry">
            <mxPoint x="165" y="540" as="targetPoint" />
          </mxGeometry>
        </mxCell>
        <mxCell id="p3jnpkZ9D1l7SyMoKNWB-14" value="&lt;b&gt;p==null&lt;/b&gt;" style="rhombus;whiteSpace=wrap;html=1;" parent="1" vertex="1">
          <mxGeometry x="92.5" y="380" width="145" height="80" as="geometry" />
        </mxCell>
        <mxCell id="p3jnpkZ9D1l7SyMoKNWB-17" value="&lt;b&gt;table[i]=newNode&lt;/b&gt;" style="rounded=1;whiteSpace=wrap;html=1;fillColor=#60a917;strokeColor=#2D7600;fontColor=#ffffff;" parent="1" vertex="1">
          <mxGeometry x="370" y="390" width="120" height="60" as="geometry" />
        </mxCell>
        <mxCell id="p3jnpkZ9D1l7SyMoKNWB-18" value="&lt;b&gt;true&lt;/b&gt;" style="text;html=1;strokeColor=none;fillColor=none;align=center;verticalAlign=middle;whiteSpace=wrap;rounded=0;" parent="1" vertex="1">
          <mxGeometry x="270" y="400" width="40" height="20" as="geometry" />
        </mxCell>
        <mxCell id="p3jnpkZ9D1l7SyMoKNWB-21" style="edgeStyle=orthogonalEdgeStyle;rounded=0;orthogonalLoop=1;jettySize=auto;html=1;entryX=0.5;entryY=0;entryDx=0;entryDy=0;" parent="1" source="p3jnpkZ9D1l7SyMoKNWB-20" target="p3jnpkZ9D1l7SyMoKNWB-4" edge="1">
          <mxGeometry relative="1" as="geometry" />
        </mxCell>
        <mxCell id="p3jnpkZ9D1l7SyMoKNWB-20" value="&lt;b&gt;计算key的hash值&lt;/b&gt;" style="rounded=1;whiteSpace=wrap;html=1;fillColor=#6a00ff;strokeColor=#3700CC;fontColor=#ffffff;" parent="1" vertex="1">
          <mxGeometry x="105" y="-20" width="120" height="70" as="geometry" />
        </mxCell>
        <mxCell id="p3jnpkZ9D1l7SyMoKNWB-23" value="&lt;b&gt;false&lt;/b&gt;" style="text;html=1;strokeColor=none;fillColor=none;align=center;verticalAlign=middle;whiteSpace=wrap;rounded=0;" parent="1" vertex="1">
          <mxGeometry x="170" y="480" width="40" height="20" as="geometry" />
        </mxCell>
        <mxCell id="p3jnpkZ9D1l7SyMoKNWB-41" style="edgeStyle=orthogonalEdgeStyle;rounded=0;orthogonalLoop=1;jettySize=auto;html=1;" parent="1" source="p3jnpkZ9D1l7SyMoKNWB-25" edge="1">
          <mxGeometry relative="1" as="geometry">
            <mxPoint x="390" y="780" as="targetPoint" />
          </mxGeometry>
        </mxCell>
        <mxCell id="p3jnpkZ9D1l7SyMoKNWB-43" style="edgeStyle=orthogonalEdgeStyle;rounded=0;orthogonalLoop=1;jettySize=auto;html=1;exitX=0.5;exitY=1;exitDx=0;exitDy=0;" parent="1" source="p3jnpkZ9D1l7SyMoKNWB-25" edge="1">
          <mxGeometry relative="1" as="geometry">
            <mxPoint x="165" y="890" as="targetPoint" />
          </mxGeometry>
        </mxCell>
        <mxCell id="p3jnpkZ9D1l7SyMoKNWB-25" value="&lt;b&gt;p ? TreeNode&lt;/b&gt;" style="rhombus;whiteSpace=wrap;html=1;" parent="1" vertex="1">
          <mxGeometry x="92.5" y="740" width="145" height="80" as="geometry" />
        </mxCell>
        <mxCell id="p3jnpkZ9D1l7SyMoKNWB-28" value="&lt;b&gt;TreeNode&lt;/b&gt;" style="text;html=1;strokeColor=none;fillColor=none;align=center;verticalAlign=middle;whiteSpace=wrap;rounded=0;" parent="1" vertex="1">
          <mxGeometry x="270" y="750" width="60" height="20" as="geometry" />
        </mxCell>
        <mxCell id="p3jnpkZ9D1l7SyMoKNWB-30" value="&lt;b&gt;Node&lt;/b&gt;" style="text;html=1;strokeColor=none;fillColor=none;align=center;verticalAlign=middle;whiteSpace=wrap;rounded=0;" parent="1" vertex="1">
          <mxGeometry x="170" y="840" width="60" height="20" as="geometry" />
        </mxCell>
        <mxCell id="p3jnpkZ9D1l7SyMoKNWB-36" style="edgeStyle=orthogonalEdgeStyle;rounded=0;orthogonalLoop=1;jettySize=auto;html=1;" parent="1" source="p3jnpkZ9D1l7SyMoKNWB-34" edge="1">
          <mxGeometry relative="1" as="geometry">
            <mxPoint x="360" y="585" as="targetPoint" />
          </mxGeometry>
        </mxCell>
        <mxCell id="p3jnpkZ9D1l7SyMoKNWB-39" style="edgeStyle=orthogonalEdgeStyle;rounded=0;orthogonalLoop=1;jettySize=auto;html=1;exitX=0.5;exitY=1;exitDx=0;exitDy=0;entryX=0.5;entryY=0;entryDx=0;entryDy=0;" parent="1" source="p3jnpkZ9D1l7SyMoKNWB-34" target="p3jnpkZ9D1l7SyMoKNWB-25" edge="1">
          <mxGeometry relative="1" as="geometry" />
        </mxCell>
        <mxCell id="p3jnpkZ9D1l7SyMoKNWB-34" value="&lt;span&gt;&lt;b&gt;key== p.key&lt;/b&gt;&lt;/span&gt;" style="rhombus;whiteSpace=wrap;html=1;fillColor=#FFFFFF;" parent="1" vertex="1">
          <mxGeometry x="125" y="545" width="80" height="80" as="geometry" />
        </mxCell>
        <mxCell id="p3jnpkZ9D1l7SyMoKNWB-37" value="&lt;b&gt;true&lt;/b&gt;" style="text;html=1;strokeColor=none;fillColor=none;align=center;verticalAlign=middle;whiteSpace=wrap;rounded=0;" parent="1" vertex="1">
          <mxGeometry x="237.5" y="560" width="40" height="20" as="geometry" />
        </mxCell>
        <mxCell id="p3jnpkZ9D1l7SyMoKNWB-49" style="edgeStyle=orthogonalEdgeStyle;rounded=0;orthogonalLoop=1;jettySize=auto;html=1;" parent="1" source="p3jnpkZ9D1l7SyMoKNWB-38" edge="1">
          <mxGeometry relative="1" as="geometry">
            <mxPoint x="530" y="585" as="targetPoint" />
          </mxGeometry>
        </mxCell>
        <mxCell id="p3jnpkZ9D1l7SyMoKNWB-38" value="&lt;b&gt;&lt;font style=&quot;font-size: 14px&quot;&gt;返回旧value&lt;/font&gt;&lt;/b&gt;" style="rounded=1;whiteSpace=wrap;html=1;fillColor=#fa6800;strokeColor=#C73500;fontColor=#ffffff;" parent="1" vertex="1">
          <mxGeometry x="360" y="555" width="120" height="60" as="geometry" />
        </mxCell>
        <mxCell id="p3jnpkZ9D1l7SyMoKNWB-40" value="&lt;b&gt;false&lt;/b&gt;" style="text;html=1;strokeColor=none;fillColor=none;align=center;verticalAlign=middle;whiteSpace=wrap;rounded=0;" parent="1" vertex="1">
          <mxGeometry x="170" y="660" width="40" height="20" as="geometry" />
        </mxCell>
        <mxCell id="p3jnpkZ9D1l7SyMoKNWB-45" style="edgeStyle=orthogonalEdgeStyle;rounded=0;orthogonalLoop=1;jettySize=auto;html=1;" parent="1" source="p3jnpkZ9D1l7SyMoKNWB-42" edge="1">
          <mxGeometry relative="1" as="geometry">
            <mxPoint x="450" y="850" as="targetPoint" />
          </mxGeometry>
        </mxCell>
        <mxCell id="p3jnpkZ9D1l7SyMoKNWB-42" value="&lt;b&gt;调用putTreeVal添加数据&lt;/b&gt;" style="rounded=1;whiteSpace=wrap;html=1;fillColor=#FFFFFF;" parent="1" vertex="1">
          <mxGeometry x="390" y="750" width="120" height="60" as="geometry" />
        </mxCell>
        <mxCell id="p3jnpkZ9D1l7SyMoKNWB-47" style="edgeStyle=orthogonalEdgeStyle;rounded=0;orthogonalLoop=1;jettySize=auto;html=1;" parent="1" source="p3jnpkZ9D1l7SyMoKNWB-46" edge="1">
          <mxGeometry relative="1" as="geometry">
            <mxPoint x="450" y="980" as="targetPoint" />
          </mxGeometry>
        </mxCell>
        <mxCell id="p3jnpkZ9D1l7SyMoKNWB-59" style="edgeStyle=orthogonalEdgeStyle;rounded=0;orthogonalLoop=1;jettySize=auto;html=1;entryX=0.5;entryY=0;entryDx=0;entryDy=0;" parent="1" source="p3jnpkZ9D1l7SyMoKNWB-46" target="p3jnpkZ9D1l7SyMoKNWB-56" edge="1">
          <mxGeometry relative="1" as="geometry" />
        </mxCell>
        <mxCell id="p3jnpkZ9D1l7SyMoKNWB-46" value="&lt;b&gt;检测红黑树中key是否存在&lt;/b&gt;" style="rhombus;whiteSpace=wrap;html=1;fillColor=#FFFFFF;" parent="1" vertex="1">
          <mxGeometry x="390" y="850" width="120" height="90" as="geometry" />
        </mxCell>
        <mxCell id="p3jnpkZ9D1l7SyMoKNWB-48" value="&lt;b&gt;不&lt;/b&gt;&lt;b&gt;存在&lt;/b&gt;" style="text;html=1;strokeColor=none;fillColor=none;align=center;verticalAlign=middle;whiteSpace=wrap;rounded=0;" parent="1" vertex="1">
          <mxGeometry x="460" y="940" width="60" height="20" as="geometry" />
        </mxCell>
        <mxCell id="p3jnpkZ9D1l7SyMoKNWB-50" value="&lt;font style=&quot;font-size: 14px&quot;&gt;&lt;b&gt;结束&lt;/b&gt;&lt;/font&gt;" style="ellipse;whiteSpace=wrap;html=1;fillColor=#e51400;strokeColor=#B20000;fontColor=#ffffff;" parent="1" vertex="1">
          <mxGeometry x="530" y="545" width="80" height="75" as="geometry" />
        </mxCell>
        <mxCell id="p3jnpkZ9D1l7SyMoKNWB-55" style="edgeStyle=orthogonalEdgeStyle;rounded=0;orthogonalLoop=1;jettySize=auto;html=1;entryX=0.5;entryY=0;entryDx=0;entryDy=0;" parent="1" source="p3jnpkZ9D1l7SyMoKNWB-56" target="p3jnpkZ9D1l7SyMoKNWB-57" edge="1">
          <mxGeometry relative="1" as="geometry" />
        </mxCell>
        <mxCell id="p3jnpkZ9D1l7SyMoKNWB-56" value="&lt;b&gt;&lt;font style=&quot;font-size: 14px&quot;&gt;返回旧value&lt;/font&gt;&lt;/b&gt;" style="rounded=1;whiteSpace=wrap;html=1;fillColor=#fa6800;strokeColor=#C73500;fontColor=#ffffff;" parent="1" vertex="1">
          <mxGeometry x="640" y="980" width="120" height="60" as="geometry" />
        </mxCell>
        <mxCell id="p3jnpkZ9D1l7SyMoKNWB-57" value="&lt;font style=&quot;font-size: 14px&quot;&gt;&lt;b&gt;结束&lt;/b&gt;&lt;/font&gt;" style="ellipse;whiteSpace=wrap;html=1;fillColor=#e51400;strokeColor=#B20000;fontColor=#ffffff;" parent="1" vertex="1">
          <mxGeometry x="660" y="1160" width="80" height="75" as="geometry" />
        </mxCell>
        <mxCell id="p3jnpkZ9D1l7SyMoKNWB-60" value="&lt;b&gt;存在&lt;/b&gt;" style="text;html=1;strokeColor=none;fillColor=none;align=center;verticalAlign=middle;whiteSpace=wrap;rounded=0;" parent="1" vertex="1">
          <mxGeometry x="550" y="870" width="60" height="20" as="geometry" />
        </mxCell>
        <mxCell id="p3jnpkZ9D1l7SyMoKNWB-80" style="edgeStyle=orthogonalEdgeStyle;rounded=0;orthogonalLoop=1;jettySize=auto;html=1;" parent="1" source="p3jnpkZ9D1l7SyMoKNWB-62" edge="1">
          <mxGeometry relative="1" as="geometry">
            <mxPoint x="455" y="1623" as="targetPoint" />
          </mxGeometry>
        </mxCell>
        <mxCell id="p3jnpkZ9D1l7SyMoKNWB-62" value="&lt;b&gt;将数据添加到红黑树中&lt;/b&gt;" style="rounded=1;whiteSpace=wrap;html=1;fillColor=#60a917;strokeColor=#2D7600;fontColor=#ffffff;" parent="1" vertex="1">
          <mxGeometry x="390" y="980" width="130" height="60" as="geometry" />
        </mxCell>
        <mxCell id="p3jnpkZ9D1l7SyMoKNWB-70" style="edgeStyle=orthogonalEdgeStyle;rounded=0;orthogonalLoop=1;jettySize=auto;html=1;" parent="1" source="p3jnpkZ9D1l7SyMoKNWB-64" edge="1">
          <mxGeometry relative="1" as="geometry">
            <mxPoint x="-40" y="1000" as="targetPoint" />
          </mxGeometry>
        </mxCell>
        <mxCell id="p3jnpkZ9D1l7SyMoKNWB-71" style="edgeStyle=orthogonalEdgeStyle;rounded=0;orthogonalLoop=1;jettySize=auto;html=1;" parent="1" source="p3jnpkZ9D1l7SyMoKNWB-64" edge="1">
          <mxGeometry relative="1" as="geometry">
            <mxPoint x="165" y="1050" as="targetPoint" />
          </mxGeometry>
        </mxCell>
        <mxCell id="p3jnpkZ9D1l7SyMoKNWB-64" value="&lt;b&gt;检测链表中key是否存在&lt;/b&gt;" style="rhombus;whiteSpace=wrap;html=1;fillColor=#FFFFFF;" parent="1" vertex="1">
          <mxGeometry x="90" y="890" width="150" height="100" as="geometry" />
        </mxCell>
        <mxCell id="p3jnpkZ9D1l7SyMoKNWB-66" style="edgeStyle=orthogonalEdgeStyle;rounded=0;orthogonalLoop=1;jettySize=auto;html=1;entryX=0.5;entryY=0;entryDx=0;entryDy=0;" parent="1" source="p3jnpkZ9D1l7SyMoKNWB-67" target="p3jnpkZ9D1l7SyMoKNWB-68" edge="1">
          <mxGeometry relative="1" as="geometry" />
        </mxCell>
        <mxCell id="p3jnpkZ9D1l7SyMoKNWB-67" value="&lt;b&gt;&lt;font style=&quot;font-size: 14px&quot;&gt;返回旧value&lt;/font&gt;&lt;/b&gt;" style="rounded=1;whiteSpace=wrap;html=1;fillColor=#fa6800;strokeColor=#C73500;fontColor=#ffffff;" parent="1" vertex="1">
          <mxGeometry x="-100" y="1000" width="120" height="60" as="geometry" />
        </mxCell>
        <mxCell id="p3jnpkZ9D1l7SyMoKNWB-68" value="&lt;font style=&quot;font-size: 14px&quot;&gt;&lt;b&gt;结束&lt;/b&gt;&lt;/font&gt;" style="ellipse;whiteSpace=wrap;html=1;fillColor=#e51400;strokeColor=#B20000;fontColor=#ffffff;" parent="1" vertex="1">
          <mxGeometry x="-80" y="1180" width="80" height="75" as="geometry" />
        </mxCell>
        <mxCell id="p3jnpkZ9D1l7SyMoKNWB-69" value="&lt;b&gt;存在&lt;/b&gt;" style="text;html=1;strokeColor=none;fillColor=none;align=center;verticalAlign=middle;whiteSpace=wrap;rounded=0;" parent="1" vertex="1">
          <mxGeometry x="-10" y="900" width="60" height="20" as="geometry" />
        </mxCell>
        <mxCell id="p3jnpkZ9D1l7SyMoKNWB-72" value="&lt;b&gt;不&lt;/b&gt;&lt;b&gt;存在&lt;/b&gt;" style="text;html=1;strokeColor=none;fillColor=none;align=center;verticalAlign=middle;whiteSpace=wrap;rounded=0;" parent="1" vertex="1">
          <mxGeometry x="165" y="990" width="60" height="20" as="geometry" />
        </mxCell>
        <mxCell id="p3jnpkZ9D1l7SyMoKNWB-74" style="edgeStyle=orthogonalEdgeStyle;rounded=0;orthogonalLoop=1;jettySize=auto;html=1;" parent="1" source="p3jnpkZ9D1l7SyMoKNWB-73" edge="1">
          <mxGeometry relative="1" as="geometry">
            <mxPoint x="165" y="1150" as="targetPoint" />
          </mxGeometry>
        </mxCell>
        <mxCell id="p3jnpkZ9D1l7SyMoKNWB-73" value="&lt;span&gt;&lt;b&gt;找到Node链表的表尾，将数据添加到表尾中&lt;/b&gt;&lt;/span&gt;" style="rounded=1;whiteSpace=wrap;html=1;fillColor=#60a917;strokeColor=#2D7600;fontColor=#ffffff;" parent="1" vertex="1">
          <mxGeometry x="100" y="1050" width="130" height="60" as="geometry" />
        </mxCell>
        <mxCell id="p3jnpkZ9D1l7SyMoKNWB-76" style="edgeStyle=orthogonalEdgeStyle;rounded=0;orthogonalLoop=1;jettySize=auto;html=1;" parent="1" source="p3jnpkZ9D1l7SyMoKNWB-75" edge="1">
          <mxGeometry relative="1" as="geometry">
            <mxPoint x="165" y="1270" as="targetPoint" />
          </mxGeometry>
        </mxCell>
        <mxCell id="p3jnpkZ9D1l7SyMoKNWB-77" style="edgeStyle=orthogonalEdgeStyle;rounded=0;orthogonalLoop=1;jettySize=auto;html=1;exitX=1;exitY=0.5;exitDx=0;exitDy=0;" parent="1" source="p3jnpkZ9D1l7SyMoKNWB-75" edge="1">
          <mxGeometry relative="1" as="geometry">
            <mxPoint x="350" y="1621.60009765625" as="targetPoint" />
          </mxGeometry>
        </mxCell>
        <mxCell id="p3jnpkZ9D1l7SyMoKNWB-75" value="&lt;b&gt;链表长度len&amp;gt;=8&lt;/b&gt;" style="rhombus;whiteSpace=wrap;html=1;fillColor=#FFFFFF;" parent="1" vertex="1">
          <mxGeometry x="125" y="1150" width="80" height="80" as="geometry" />
        </mxCell>
        <mxCell id="p3jnpkZ9D1l7SyMoKNWB-78" value="&lt;b&gt;true&lt;/b&gt;" style="text;html=1;strokeColor=none;fillColor=none;align=center;verticalAlign=middle;whiteSpace=wrap;rounded=0;" parent="1" vertex="1">
          <mxGeometry x="170" y="1235" width="40" height="20" as="geometry" />
        </mxCell>
        <mxCell id="p3jnpkZ9D1l7SyMoKNWB-79" value="&lt;b&gt;false&lt;/b&gt;" style="text;html=1;strokeColor=none;fillColor=none;align=center;verticalAlign=middle;whiteSpace=wrap;rounded=0;" parent="1" vertex="1">
          <mxGeometry x="210" y="1160" width="40" height="20" as="geometry" />
        </mxCell>
        <mxCell id="p3jnpkZ9D1l7SyMoKNWB-82" style="edgeStyle=orthogonalEdgeStyle;rounded=0;orthogonalLoop=1;jettySize=auto;html=1;entryX=0.5;entryY=0;entryDx=0;entryDy=0;" parent="1" source="p3jnpkZ9D1l7SyMoKNWB-81" target="p3jnpkZ9D1l7SyMoKNWB-86" edge="1">
          <mxGeometry relative="1" as="geometry">
            <mxPoint x="-10" y="1390" as="targetPoint" />
          </mxGeometry>
        </mxCell>
        <mxCell id="p3jnpkZ9D1l7SyMoKNWB-83" style="edgeStyle=orthogonalEdgeStyle;rounded=0;orthogonalLoop=1;jettySize=auto;html=1;" parent="1" source="p3jnpkZ9D1l7SyMoKNWB-81" edge="1">
          <mxGeometry relative="1" as="geometry">
            <mxPoint x="165" y="1420" as="targetPoint" />
          </mxGeometry>
        </mxCell>
        <mxCell id="p3jnpkZ9D1l7SyMoKNWB-81" value="&lt;b&gt;table的容量Cap&amp;lt;64&lt;/b&gt;" style="rhombus;whiteSpace=wrap;html=1;fillColor=#FFFFFF;" parent="1" vertex="1">
          <mxGeometry x="125" y="1270" width="80" height="90" as="geometry" />
        </mxCell>
        <mxCell id="p3jnpkZ9D1l7SyMoKNWB-84" value="&lt;b&gt;false&lt;/b&gt;" style="text;html=1;strokeColor=none;fillColor=none;align=center;verticalAlign=middle;whiteSpace=wrap;rounded=0;" parent="1" vertex="1">
          <mxGeometry x="170" y="1370" width="40" height="20" as="geometry" />
        </mxCell>
        <mxCell id="p3jnpkZ9D1l7SyMoKNWB-85" value="&lt;b&gt;true&lt;/b&gt;" style="text;html=1;strokeColor=none;fillColor=none;align=center;verticalAlign=middle;whiteSpace=wrap;rounded=0;" parent="1" vertex="1">
          <mxGeometry x="30" y="1290" width="40" height="20" as="geometry" />
        </mxCell>
        <mxCell id="p3jnpkZ9D1l7SyMoKNWB-92" style="edgeStyle=orthogonalEdgeStyle;rounded=0;orthogonalLoop=1;jettySize=auto;html=1;entryX=0;entryY=0.5;entryDx=0;entryDy=0;" parent="1" source="p3jnpkZ9D1l7SyMoKNWB-86" target="p3jnpkZ9D1l7SyMoKNWB-93" edge="1">
          <mxGeometry relative="1" as="geometry">
            <mxPoint x="-10" y="1730" as="targetPoint" />
            <Array as="points">
              <mxPoint x="-10" y="1667" />
            </Array>
          </mxGeometry>
        </mxCell>
        <mxCell id="p3jnpkZ9D1l7SyMoKNWB-86" value="&lt;b&gt;&lt;font style=&quot;font-size: 14px&quot;&gt;扩容&lt;/font&gt;&lt;/b&gt;" style="rounded=1;whiteSpace=wrap;html=1;fillColor=#d80073;strokeColor=#A50040;fontColor=#ffffff;" parent="1" vertex="1">
          <mxGeometry x="-70" y="1420" width="120" height="60" as="geometry" />
        </mxCell>
        <mxCell id="p3jnpkZ9D1l7SyMoKNWB-91" style="edgeStyle=orthogonalEdgeStyle;rounded=0;orthogonalLoop=1;jettySize=auto;html=1;" parent="1" source="p3jnpkZ9D1l7SyMoKNWB-87" edge="1">
          <mxGeometry relative="1" as="geometry">
            <mxPoint x="300" y="1630" as="targetPoint" />
          </mxGeometry>
        </mxCell>
        <mxCell id="p3jnpkZ9D1l7SyMoKNWB-87" value="&lt;b&gt;将链表转换成红黑树&lt;/b&gt;" style="rounded=1;whiteSpace=wrap;html=1;fillColor=#1ba1e2;strokeColor=#006EAF;fontColor=#ffffff;" parent="1" vertex="1">
          <mxGeometry x="103" y="1420" width="120" height="60" as="geometry" />
        </mxCell>
        <mxCell id="p3jnpkZ9D1l7SyMoKNWB-94" style="edgeStyle=orthogonalEdgeStyle;rounded=0;orthogonalLoop=1;jettySize=auto;html=1;" parent="1" source="p3jnpkZ9D1l7SyMoKNWB-93" edge="1">
          <mxGeometry relative="1" as="geometry">
            <mxPoint x="390" y="1800" as="targetPoint" />
          </mxGeometry>
        </mxCell>
        <mxCell id="p3jnpkZ9D1l7SyMoKNWB-99" style="edgeStyle=orthogonalEdgeStyle;rounded=0;orthogonalLoop=1;jettySize=auto;html=1;" parent="1" source="p3jnpkZ9D1l7SyMoKNWB-93" edge="1">
          <mxGeometry relative="1" as="geometry">
            <mxPoint x="670" y="1665" as="targetPoint" />
          </mxGeometry>
        </mxCell>
        <mxCell id="p3jnpkZ9D1l7SyMoKNWB-93" value="&lt;b&gt;&lt;font style=&quot;font-size: 18px&quot;&gt;size&amp;gt;threshold&lt;/font&gt;&lt;/b&gt;" style="rhombus;whiteSpace=wrap;html=1;fillColor=#FFFFFF;" parent="1" vertex="1">
          <mxGeometry x="215" y="1610" width="350" height="110" as="geometry" />
        </mxCell>
        <mxCell id="p3jnpkZ9D1l7SyMoKNWB-95" value="&lt;b&gt;false&lt;/b&gt;" style="text;html=1;strokeColor=none;fillColor=none;align=center;verticalAlign=middle;whiteSpace=wrap;rounded=0;" parent="1" vertex="1">
          <mxGeometry x="600" y="1640" width="40" height="20" as="geometry" />
        </mxCell>
        <mxCell id="p3jnpkZ9D1l7SyMoKNWB-97" value="&lt;b&gt;true&lt;/b&gt;" style="text;html=1;strokeColor=none;fillColor=none;align=center;verticalAlign=middle;whiteSpace=wrap;rounded=0;" parent="1" vertex="1">
          <mxGeometry x="400" y="1734" width="40" height="20" as="geometry" />
        </mxCell>
        <mxCell id="p3jnpkZ9D1l7SyMoKNWB-104" style="edgeStyle=orthogonalEdgeStyle;rounded=0;orthogonalLoop=1;jettySize=auto;html=1;" parent="1" source="p3jnpkZ9D1l7SyMoKNWB-100" edge="1">
          <mxGeometry relative="1" as="geometry">
            <mxPoint x="390" y="1930" as="targetPoint" />
          </mxGeometry>
        </mxCell>
        <mxCell id="p3jnpkZ9D1l7SyMoKNWB-100" value="&lt;font style=&quot;font-size: 14px&quot;&gt;扩容&lt;/font&gt;" style="rounded=1;whiteSpace=wrap;html=1;fillColor=#d80073;strokeColor=#A50040;fontColor=#ffffff;" parent="1" vertex="1">
          <mxGeometry x="330" y="1800" width="120" height="60" as="geometry" />
        </mxCell>
        <mxCell id="p3jnpkZ9D1l7SyMoKNWB-102" value="&lt;font style=&quot;font-size: 14px&quot;&gt;&lt;b&gt;结束&lt;/b&gt;&lt;/font&gt;" style="ellipse;whiteSpace=wrap;html=1;fillColor=#e51400;strokeColor=#B20000;fontColor=#ffffff;" parent="1" vertex="1">
          <mxGeometry x="670" y="1630" width="80" height="75" as="geometry" />
        </mxCell>
        <mxCell id="p3jnpkZ9D1l7SyMoKNWB-103" value="&lt;font style=&quot;font-size: 14px&quot;&gt;&lt;b&gt;结束&lt;/b&gt;&lt;/font&gt;" style="ellipse;whiteSpace=wrap;html=1;fillColor=#e51400;strokeColor=#B20000;fontColor=#ffffff;" parent="1" vertex="1">
          <mxGeometry x="350" y="1930" width="80" height="75" as="geometry" />
        </mxCell>
        <mxCell id="p3jnpkZ9D1l7SyMoKNWB-105" value="" style="endArrow=none;dashed=1;html=1;strokeWidth=3;fillColor=#fa6800;strokeColor=#C73500;" parent="1" edge="1">
          <mxGeometry width="50" height="50" relative="1" as="geometry">
            <mxPoint x="-90" y="1560" as="sourcePoint" />
            <mxPoint x="-90" y="1257.599853515625" as="targetPoint" />
          </mxGeometry>
        </mxCell>
        <mxCell id="p3jnpkZ9D1l7SyMoKNWB-112" value="" style="endArrow=none;dashed=1;html=1;strokeWidth=3;fillColor=#fa6800;strokeColor=#C73500;" parent="1" edge="1">
          <mxGeometry width="50" height="50" relative="1" as="geometry">
            <mxPoint x="237" y="1560" as="sourcePoint" />
            <mxPoint x="236.5" y="1254.999853515625" as="targetPoint" />
          </mxGeometry>
        </mxCell>
        <mxCell id="p3jnpkZ9D1l7SyMoKNWB-113" value="" style="endArrow=none;dashed=1;html=1;dashPattern=1 3;strokeWidth=4;fillColor=#fa6800;strokeColor=#C73500;" parent="1" edge="1">
          <mxGeometry width="50" height="50" relative="1" as="geometry">
            <mxPoint x="-90" y="1558.4" as="sourcePoint" />
            <mxPoint x="240" y="1558" as="targetPoint" />
          </mxGeometry>
        </mxCell>
        <mxCell id="p3jnpkZ9D1l7SyMoKNWB-114" value="" style="endArrow=none;dashed=1;html=1;dashPattern=1 3;strokeWidth=4;fillColor=#fa6800;strokeColor=#C73500;" parent="1" edge="1">
          <mxGeometry width="50" height="50" relative="1" as="geometry">
            <mxPoint x="-90" y="1260.4" as="sourcePoint" />
            <mxPoint x="240" y="1260" as="targetPoint" />
          </mxGeometry>
        </mxCell>
        <mxCell id="p3jnpkZ9D1l7SyMoKNWB-115" value="" style="shape=flexArrow;endArrow=classic;html=1;strokeWidth=4;strokeColor=#432D57;fillColor=#000000;" parent="1" edge="1">
          <mxGeometry width="50" height="50" relative="1" as="geometry">
            <mxPoint x="-110" y="1510" as="sourcePoint" />
            <mxPoint x="-180" y="1580" as="targetPoint" />
          </mxGeometry>
        </mxCell>
        <mxCell id="p3jnpkZ9D1l7SyMoKNWB-116" value="&lt;b&gt;&lt;span style=&quot;background-color: rgb(248 , 249 , 250)&quot;&gt;&lt;font style=&quot;font-size: 14px&quot;&gt;是&lt;/font&gt;&lt;/span&gt;&lt;span style=&quot;background-color: rgb(255 , 255 , 255) ; font-family: &amp;#34;consolas&amp;#34; ; font-size: 13.5pt&quot;&gt;treeifyBin中的判断&lt;/span&gt;&lt;/b&gt;" style="text;html=1;strokeColor=none;fillColor=none;align=center;verticalAlign=middle;whiteSpace=wrap;rounded=0;" parent="1" vertex="1">
          <mxGeometry x="-280" y="1570" width="140" height="70" as="geometry" />
        </mxCell>
      </root>
    </mxGraphModel>
  </diagram>
</mxfile>
